<svg xmlns="http://www.w3.org/2000/svg" width="985" height="641" fill="none" viewBox="0 0 985 641"><path stroke="#fff" stroke-miterlimit="10" stroke-opacity=".5" stroke-width=".5" d="M983.688 241.301C952.531 242.346 932.905 207.107 913.399 180.738C889.501 148.367 857.031 124.625 824.022 103.602C767.842 67.7647 707.874 38.2402 645.209 15.5652C614.561 4.48597 581.254 -4.86119 550.426 5.47145C511.832 18.4022 486.65 58.6876 450.803 79.323C431.088 90.7009 408.983 95.688 386.997 100.556C369.373 104.468 351.599 108.38 333.586 108.499C263.298 109.007 200.387 52.2073 130.129 54.3276C125.917 44.3533 112.206 48.5938 103.483 54.3276L74.4178 73.5893C71.6646 59.8102 65.675 46.8826 56.9428 35.8721C53.2088 31.2135 48.6682 26.9132 43.0822 25.7187C40.2105 25.1074 37.2136 25.6603 34.7493 27.256C32.285 28.8517 30.5548 31.3598 29.9386 34.2297C17.7807 26.2562 -0.470964 39.9335 2.09802 55.1339L27.8177 80.637C26.4137 88.9091 13.6883 90.671 10.4323 83.026C2.75519 82.5184 -0.829431 94.1948 1.91878 102.019C4.66699 109.843 10.8803 115.875 13.4194 123.759C15.6001 130.419 15.0923 137.855 17.3924 144.455C19.6925 151.054 27.1605 156.639 32.5673 152.727C32.9557 156.609 33.3141 160.491 33.7024 164.373L44.6355 181.843C40.6543 177.387 36.991 172.657 33.6726 167.688L59.9001 206.51C59.9123 206.381 59.9123 206.251 59.9001 206.122L62.469 209.915L60.1689 206.51C60.2131 207.661 60.5025 208.789 61.0176 209.819C61.5327 210.849 62.2618 211.757 63.1561 212.483C63.5586 212.749 63.9894 212.969 64.4406 213.14L76.3893 232.043C76.3893 233.118 76.3893 234.163 76.3893 235.209V232.222C88.3381 234.014 96.4035 245.959 102.408 257.277C108.412 268.596 114.685 281.168 125.887 286.006C136.551 290.545 148.53 286.603 159.373 282.631L184.227 273.672C188.974 271.644 194.017 270.393 199.163 269.969C203.715 270.045 208.233 270.779 212.575 272.149L255.322 283.408L267.271 284.781C268.757 289.402 271.419 293.557 274.996 296.84C278.573 300.122 282.941 302.419 287.673 303.506C293.797 304.7 300.249 303.506 306.253 305.417C313.393 307.627 318.829 313.689 324.744 318.587C330.659 323.484 338.366 327.545 345.296 324.559C347.119 323.44 349.152 322.708 351.27 322.409C354.885 322.409 357.245 326.411 359.814 329.128C366.296 335.907 376.482 335.788 384.637 339.879C401.126 348.151 408.714 373.057 426.697 375.715C439.587 390.786 453.913 404.569 469.473 416.866C476.46 421.972 483.105 427.529 489.368 433.5C493.864 438.099 497.777 443.234 501.018 448.79C502.946 452.492 505.133 456.055 507.56 459.451C510.227 462.518 513.233 465.273 516.521 467.663L537.671 484.446C540.669 486.572 543.268 489.211 545.348 492.241C549.201 498.661 548.693 507.859 553.861 513.145C557.655 516.967 564.346 518.67 564.824 524.254C565.302 529.838 559.567 533.631 560.433 538.738C561.06 542.53 565.183 545.188 564.794 549.011C564.257 551.047 563.231 552.923 561.807 554.475C556.908 561.971 561.419 574.275 569.723 576.037C570.56 581.86 562.703 583.293 557.326 583.921C548.574 584.936 540.897 590.431 533.608 595.866L514.162 610.111C511.679 611.598 509.661 613.749 508.336 616.322C506.126 621.608 509.621 627.73 513.833 631.254C525.274 641.049 541.196 640.959 555.654 640.392L564.167 640.063C577.311 639.556 590.723 638.988 603.18 634.359C606.981 633.299 610.245 630.847 612.32 627.491C613.784 624.654 613.874 621.04 615.696 618.532C620.087 612.559 632.842 613.216 631.677 605.541C630.961 600.853 625.135 599.987 621.82 596.941C617.399 592.85 617.907 585.444 616.174 579.441C614.441 573.439 605.988 568.81 603.538 574.484C605.555 575.868 607.191 577.736 608.298 579.917C609.404 582.098 609.945 584.522 609.871 586.967L604.404 593.178C598.353 587.732 591.686 583.012 584.54 579.113C584.527 577.255 585.156 575.45 586.321 574.003C587.485 572.555 589.114 571.554 590.932 571.169C591.274 568.819 590.855 566.422 589.737 564.327C588.619 562.231 586.861 560.548 584.719 559.522C585.914 551.131 596.249 546.144 602.791 550.832L605.51 551.907C610.181 548.149 615.63 545.477 621.461 544.083C620.588 548.891 618.14 553.273 614.501 556.536C613.814 559.015 616.652 561.045 619.012 560.896C621.372 560.747 623.522 559.343 625.882 559.164C628.451 555.58 628.272 550.563 627.943 546.024C627.943 544.083 627.704 542.142 627.555 540.052L640.191 534.079L641.804 530.884C645.299 527.897 646.255 522.492 646.076 517.654C645.5 512.829 645.251 507.97 645.329 503.111C646.489 496.587 649.092 490.404 652.946 485.014L656.71 479.041L660.773 476.413L683.415 454.971C689.41 449.082 695.744 443.548 702.384 438.397C709.125 433.332 716.534 429.222 724.4 426.183C737.22 421.347 751.092 419.987 764.607 422.241C771.717 423.436 778.826 425.616 785.995 424.869C793.165 424.123 800.633 419.434 802.186 411.819C810.939 411.819 822.35 409.759 823.664 400.352C828 400.712 832.367 400.318 836.569 399.187C836.774 396.431 838.028 393.858 840.073 391.997C842.117 390.137 844.797 389.13 847.561 389.183C846.343 385.021 843.921 381.312 840.601 378.522L839.675 377.148C839.2 376.73 838.855 376.184 838.68 375.575C838.505 374.967 838.509 374.321 838.689 373.714C841.318 372.728 844.335 375.834 846.844 374.49C848.458 373.654 848.935 371.504 849.832 369.832C850.389 368.969 851.16 368.265 852.07 367.787C852.979 367.309 853.997 367.074 855.024 367.104C856.051 367.134 857.053 367.428 857.933 367.958C858.813 368.488 859.541 369.236 860.048 370.13L860.884 374.968L877.941 375.625C883.915 375.834 891.772 378.611 890.726 384.972C900.186 376.451 909.605 367.891 918.985 359.29C920.545 357.985 921.912 356.467 923.048 354.781C924.334 352.131 925.288 349.333 925.885 346.449C929.858 333.01 941.24 323.544 953.338 318.377C957.997 316.855 962.369 314.564 966.272 311.599C968.553 309.408 970.469 306.868 971.948 304.073C977.792 293.957 981.607 282.799 983.18 271.224C984.064 261.274 984.234 251.274 983.688 241.301V241.301Z"/><path stroke="#fff" stroke-miterlimit="10" stroke-opacity=".5" stroke-width=".5" d="M793.255 509.352C794.41 508.656 795.345 507.647 795.953 506.443C796.561 505.238 796.816 503.887 796.69 502.544C791.91 501.707 789.192 510.248 784.472 509.084L791.074 501.976C791.873 501.331 792.521 500.517 792.97 499.593C793.419 498.669 793.659 497.658 793.673 496.631C793.284 493.883 790.058 492.719 788.027 490.807C788.224 490.178 788.624 489.632 789.164 489.254C789.705 488.875 790.355 488.687 791.014 488.717C792.343 488.854 793.643 489.197 794.868 489.732C797.446 490.576 800.209 490.68 802.843 490.031C803.312 489.713 803.707 489.297 804.001 488.813C804.295 488.329 804.481 487.787 804.546 487.224C800.082 484.362 794.912 482.791 789.61 482.685C786.963 482.687 784.391 483.567 782.298 485.189C780.206 486.811 778.712 489.081 778.05 491.644C778.006 492.615 777.772 493.569 777.363 494.451C775.63 497.437 770.88 494.928 768.013 496.631L767.296 505.082C767.146 505.761 767.146 506.464 767.296 507.142C768.102 509.382 771.478 509.323 773.001 511.114C774.525 512.906 773.927 515.176 775.242 516.758C776.012 517.485 777.003 517.935 778.057 518.038C779.112 518.14 780.17 517.89 781.067 517.326C782.828 516.162 784.505 514.874 786.085 513.473C788.505 511.801 791.074 510.905 793.255 509.352Z"/><path stroke="#fff" stroke-miterlimit="10" stroke-opacity=".5" stroke-width=".5" d="M917.701 549.548C915.789 548.533 913.369 548.443 911.726 547.01C910.914 546.169 910.23 545.213 909.695 544.173C907.757 541.112 904.948 538.699 901.63 537.245C900.294 536.833 899.061 536.141 898.015 535.214C895.028 531.989 898.852 525.837 895.625 522.94L894.341 521.118C893.523 520.961 892.747 520.634 892.062 520.159C891.378 519.684 890.801 519.071 890.367 518.359C889.934 517.648 889.655 516.853 889.547 516.027C889.439 515.201 889.505 514.362 889.741 513.563C890.025 513.064 890.16 512.494 890.129 511.921C889.86 510.398 887.53 510.696 886.216 509.83C885.702 509.391 885.324 508.817 885.123 508.172C884.922 507.528 884.907 506.839 885.081 506.187C885.44 504.885 885.7 503.557 885.857 502.215C885.857 499.229 882.87 496.81 880.211 495.436C877.149 493.92 873.86 492.911 870.473 492.45C860.555 496.634 849.429 496.953 839.287 493.346C836.297 491.975 833.13 491.03 829.877 490.539C824.65 490.21 819.84 493.167 814.732 494.361C812.759 494.663 810.825 495.184 808.967 495.914C804.845 498.004 803.202 502.962 802.007 507.441L801.021 508.964C798.542 511.95 793.135 512.757 793.135 516.549C793.135 517.983 794.061 519.327 793.941 520.76C793.583 524.881 786.503 524.105 784.233 527.569C782.56 530.107 784.233 533.542 784.233 536.528C783.719 539.541 782.836 542.48 781.604 545.278C780.858 548.264 781.933 552.266 784.95 552.684C786.671 552.633 788.353 552.161 789.849 551.31C791.865 550.68 794.003 550.544 796.082 550.913C798.162 551.282 800.122 552.145 801.798 553.43C805.11 556.01 807.779 559.322 809.594 563.106C810.387 564.99 811.603 566.666 813.149 568.004C814.81 568.959 816.616 569.635 818.496 570.004C821.271 570.833 823.831 572.26 825.994 574.185C827.423 575.679 828.95 577.075 830.564 578.366C832.699 579.681 835.043 580.621 837.495 581.143L848.159 584.13L856.344 591.088C858.746 590.661 861.214 590.79 863.559 591.462C865.905 592.135 868.065 593.335 869.876 594.97L871.519 596.165C873.972 599.136 877.403 601.136 881.197 601.809L883.557 602.585C884.219 603.012 884.971 603.28 885.754 603.368C886.537 603.456 887.33 603.362 888.07 603.093C888.811 602.825 889.479 602.388 890.023 601.818C890.566 601.248 890.971 600.56 891.204 599.808C891.293 599.168 891.443 598.538 891.652 597.926C892.459 596.015 895.058 595.776 897.149 595.985C899.24 596.194 901.659 596.433 903.123 594.91C905.334 592.432 902.526 588.37 903.511 585.175C904.497 581.98 908.082 581.293 910.86 579.889C913.576 578.538 915.816 576.392 917.282 573.737L917.91 571.916C917.287 570.489 917.14 568.901 917.49 567.384C917.839 565.868 918.667 564.504 919.851 563.494C921.345 562.27 923.496 561.464 923.944 559.552C924.061 558.3 923.744 557.046 923.048 555.999C921.986 553.341 920.115 551.085 917.701 549.548V549.548Z"/></svg>